<mxfile host="Electron" modified="2024-03-18T09:02:11.060Z" agent="Mozilla/5.0 (Windows NT 10.0; Win64; x64) AppleWebKit/537.36 (KHTML, like Gecko) draw.io/24.0.4 Chrome/120.0.6099.109 Electron/28.1.0 Safari/537.36" etag="_zaB3DeSVUrr8ZlNf_yT" version="24.0.4" type="device">
  <diagram name="Pagina-1" id="ZY3xqLG_tzck18maqhdd">
    <mxGraphModel dx="202" dy="122" grid="1" gridSize="10" guides="1" tooltips="1" connect="1" arrows="1" fold="1" page="1" pageScale="1" pageWidth="827" pageHeight="1169" math="0" shadow="0">
      <root>
        <mxCell id="0" />
        <mxCell id="1" parent="0" />
        <mxCell id="njoxixaRQs9KtplASw69-11" style="edgeStyle=orthogonalEdgeStyle;rounded=0;orthogonalLoop=1;jettySize=auto;html=1;entryX=0;entryY=0.5;entryDx=0;entryDy=0;" parent="1" source="njoxixaRQs9KtplASw69-1" target="njoxixaRQs9KtplASw69-9" edge="1">
          <mxGeometry relative="1" as="geometry" />
        </mxCell>
        <mxCell id="njoxixaRQs9KtplASw69-16" style="edgeStyle=orthogonalEdgeStyle;rounded=0;orthogonalLoop=1;jettySize=auto;html=1;entryX=0;entryY=0.5;entryDx=0;entryDy=0;" parent="1" source="njoxixaRQs9KtplASw69-1" target="njoxixaRQs9KtplASw69-12" edge="1">
          <mxGeometry relative="1" as="geometry" />
        </mxCell>
        <mxCell id="njoxixaRQs9KtplASw69-18" style="edgeStyle=orthogonalEdgeStyle;rounded=0;orthogonalLoop=1;jettySize=auto;html=1;entryX=0;entryY=0.5;entryDx=0;entryDy=0;" parent="1" source="njoxixaRQs9KtplASw69-1" target="njoxixaRQs9KtplASw69-14" edge="1">
          <mxGeometry relative="1" as="geometry" />
        </mxCell>
        <mxCell id="njoxixaRQs9KtplASw69-118" style="edgeStyle=orthogonalEdgeStyle;rounded=0;orthogonalLoop=1;jettySize=auto;html=1;entryX=0;entryY=0.5;entryDx=0;entryDy=0;endArrow=doubleBlock;endFill=1;" parent="1" source="njoxixaRQs9KtplASw69-1" target="njoxixaRQs9KtplASw69-117" edge="1">
          <mxGeometry relative="1" as="geometry" />
        </mxCell>
        <mxCell id="njoxixaRQs9KtplASw69-153" style="edgeStyle=orthogonalEdgeStyle;rounded=0;orthogonalLoop=1;jettySize=auto;html=1;entryX=1;entryY=0.5;entryDx=0;entryDy=0;endArrow=doubleBlock;endFill=1;" parent="1" source="njoxixaRQs9KtplASw69-1" target="njoxixaRQs9KtplASw69-151" edge="1">
          <mxGeometry relative="1" as="geometry" />
        </mxCell>
        <mxCell id="njoxixaRQs9KtplASw69-1" value="Cinema" style="rounded=0;whiteSpace=wrap;html=1;" parent="1" vertex="1">
          <mxGeometry x="370" y="460" width="120" height="60" as="geometry" />
        </mxCell>
        <mxCell id="njoxixaRQs9KtplASw69-27" style="edgeStyle=orthogonalEdgeStyle;rounded=0;orthogonalLoop=1;jettySize=auto;html=1;entryX=0;entryY=0.5;entryDx=0;entryDy=0;" parent="1" source="njoxixaRQs9KtplASw69-2" target="njoxixaRQs9KtplASw69-20" edge="1">
          <mxGeometry relative="1" as="geometry">
            <Array as="points">
              <mxPoint x="820" y="555" />
            </Array>
          </mxGeometry>
        </mxCell>
        <mxCell id="njoxixaRQs9KtplASw69-28" style="edgeStyle=orthogonalEdgeStyle;rounded=0;orthogonalLoop=1;jettySize=auto;html=1;entryX=0;entryY=0.5;entryDx=0;entryDy=0;" parent="1" source="njoxixaRQs9KtplASw69-2" target="njoxixaRQs9KtplASw69-22" edge="1">
          <mxGeometry relative="1" as="geometry">
            <Array as="points">
              <mxPoint x="820" y="595" />
            </Array>
          </mxGeometry>
        </mxCell>
        <mxCell id="njoxixaRQs9KtplASw69-29" style="edgeStyle=orthogonalEdgeStyle;rounded=0;orthogonalLoop=1;jettySize=auto;html=1;entryX=0;entryY=0.5;entryDx=0;entryDy=0;" parent="1" source="njoxixaRQs9KtplASw69-2" target="njoxixaRQs9KtplASw69-24" edge="1">
          <mxGeometry relative="1" as="geometry">
            <Array as="points">
              <mxPoint x="820" y="635" />
            </Array>
          </mxGeometry>
        </mxCell>
        <mxCell id="njoxixaRQs9KtplASw69-119" style="edgeStyle=orthogonalEdgeStyle;rounded=0;orthogonalLoop=1;jettySize=auto;html=1;entryX=1;entryY=0.5;entryDx=0;entryDy=0;" parent="1" source="njoxixaRQs9KtplASw69-2" target="njoxixaRQs9KtplASw69-117" edge="1">
          <mxGeometry relative="1" as="geometry" />
        </mxCell>
        <mxCell id="njoxixaRQs9KtplASw69-127" style="edgeStyle=orthogonalEdgeStyle;rounded=0;orthogonalLoop=1;jettySize=auto;html=1;entryX=0.5;entryY=0;entryDx=0;entryDy=0;endArrow=doubleBlock;endFill=1;" parent="1" source="njoxixaRQs9KtplASw69-2" target="njoxixaRQs9KtplASw69-126" edge="1">
          <mxGeometry relative="1" as="geometry" />
        </mxCell>
        <mxCell id="njoxixaRQs9KtplASw69-2" value="Theater" style="rounded=0;whiteSpace=wrap;html=1;" parent="1" vertex="1">
          <mxGeometry x="725" y="460" width="120" height="60" as="geometry" />
        </mxCell>
        <mxCell id="njoxixaRQs9KtplASw69-45" style="edgeStyle=orthogonalEdgeStyle;rounded=0;orthogonalLoop=1;jettySize=auto;html=1;entryX=0;entryY=0.5;entryDx=0;entryDy=0;" parent="1" source="njoxixaRQs9KtplASw69-3" target="njoxixaRQs9KtplASw69-31" edge="1">
          <mxGeometry relative="1" as="geometry" />
        </mxCell>
        <mxCell id="njoxixaRQs9KtplASw69-46" style="edgeStyle=orthogonalEdgeStyle;rounded=0;orthogonalLoop=1;jettySize=auto;html=1;entryX=0;entryY=0.5;entryDx=0;entryDy=0;" parent="1" source="njoxixaRQs9KtplASw69-3" target="njoxixaRQs9KtplASw69-33" edge="1">
          <mxGeometry relative="1" as="geometry" />
        </mxCell>
        <mxCell id="njoxixaRQs9KtplASw69-47" style="edgeStyle=orthogonalEdgeStyle;rounded=0;orthogonalLoop=1;jettySize=auto;html=1;entryX=0;entryY=0.5;entryDx=0;entryDy=0;" parent="1" source="njoxixaRQs9KtplASw69-3" target="njoxixaRQs9KtplASw69-35" edge="1">
          <mxGeometry relative="1" as="geometry" />
        </mxCell>
        <mxCell id="njoxixaRQs9KtplASw69-48" style="edgeStyle=orthogonalEdgeStyle;rounded=0;orthogonalLoop=1;jettySize=auto;html=1;entryX=0;entryY=0.5;entryDx=0;entryDy=0;" parent="1" source="njoxixaRQs9KtplASw69-3" target="njoxixaRQs9KtplASw69-42" edge="1">
          <mxGeometry relative="1" as="geometry" />
        </mxCell>
        <mxCell id="njoxixaRQs9KtplASw69-54" style="edgeStyle=orthogonalEdgeStyle;rounded=0;orthogonalLoop=1;jettySize=auto;html=1;entryX=0;entryY=0.5;entryDx=0;entryDy=0;" parent="1" source="njoxixaRQs9KtplASw69-3" target="njoxixaRQs9KtplASw69-52" edge="1">
          <mxGeometry relative="1" as="geometry" />
        </mxCell>
        <mxCell id="njoxixaRQs9KtplASw69-123" style="edgeStyle=orthogonalEdgeStyle;rounded=0;orthogonalLoop=1;jettySize=auto;html=1;entryX=0;entryY=0.5;entryDx=0;entryDy=0;endArrow=doubleBlock;endFill=1;" parent="1" source="njoxixaRQs9KtplASw69-3" target="njoxixaRQs9KtplASw69-122" edge="1">
          <mxGeometry relative="1" as="geometry" />
        </mxCell>
        <mxCell id="njoxixaRQs9KtplASw69-150" style="edgeStyle=orthogonalEdgeStyle;rounded=0;orthogonalLoop=1;jettySize=auto;html=1;entryX=1;entryY=0.5;entryDx=0;entryDy=0;endArrow=doubleBlock;endFill=1;" parent="1" source="njoxixaRQs9KtplASw69-3" target="njoxixaRQs9KtplASw69-148" edge="1">
          <mxGeometry relative="1" as="geometry" />
        </mxCell>
        <mxCell id="njoxixaRQs9KtplASw69-3" value="Movie" style="rounded=0;whiteSpace=wrap;html=1;" parent="1" vertex="1">
          <mxGeometry x="369" y="800" width="120" height="60" as="geometry" />
        </mxCell>
        <mxCell id="njoxixaRQs9KtplASw69-60" style="edgeStyle=orthogonalEdgeStyle;rounded=0;orthogonalLoop=1;jettySize=auto;html=1;entryX=0;entryY=0.5;entryDx=0;entryDy=0;" parent="1" source="njoxixaRQs9KtplASw69-4" target="njoxixaRQs9KtplASw69-56" edge="1">
          <mxGeometry relative="1" as="geometry" />
        </mxCell>
        <mxCell id="njoxixaRQs9KtplASw69-61" style="edgeStyle=orthogonalEdgeStyle;rounded=0;orthogonalLoop=1;jettySize=auto;html=1;entryX=0;entryY=0.5;entryDx=0;entryDy=0;" parent="1" source="njoxixaRQs9KtplASw69-4" target="njoxixaRQs9KtplASw69-58" edge="1">
          <mxGeometry relative="1" as="geometry" />
        </mxCell>
        <mxCell id="njoxixaRQs9KtplASw69-124" style="edgeStyle=orthogonalEdgeStyle;rounded=0;orthogonalLoop=1;jettySize=auto;html=1;entryX=1;entryY=0.5;entryDx=0;entryDy=0;" parent="1" source="njoxixaRQs9KtplASw69-4" target="njoxixaRQs9KtplASw69-122" edge="1">
          <mxGeometry relative="1" as="geometry" />
        </mxCell>
        <mxCell id="njoxixaRQs9KtplASw69-128" style="edgeStyle=orthogonalEdgeStyle;rounded=0;orthogonalLoop=1;jettySize=auto;html=1;entryX=0.5;entryY=1;entryDx=0;entryDy=0;" parent="1" source="njoxixaRQs9KtplASw69-4" target="njoxixaRQs9KtplASw69-126" edge="1">
          <mxGeometry relative="1" as="geometry" />
        </mxCell>
        <mxCell id="njoxixaRQs9KtplASw69-132" style="edgeStyle=orthogonalEdgeStyle;rounded=0;orthogonalLoop=1;jettySize=auto;html=1;entryX=0;entryY=0.5;entryDx=0;entryDy=0;endArrow=doubleBlock;endFill=1;" parent="1" source="njoxixaRQs9KtplASw69-4" target="njoxixaRQs9KtplASw69-131" edge="1">
          <mxGeometry relative="1" as="geometry" />
        </mxCell>
        <mxCell id="njoxixaRQs9KtplASw69-4" value="Showtime" style="rounded=0;whiteSpace=wrap;html=1;" parent="1" vertex="1">
          <mxGeometry x="724" y="800" width="120" height="60" as="geometry" />
        </mxCell>
        <mxCell id="njoxixaRQs9KtplASw69-94" style="edgeStyle=orthogonalEdgeStyle;rounded=0;orthogonalLoop=1;jettySize=auto;html=1;entryX=0;entryY=0.5;entryDx=0;entryDy=0;" parent="1" source="njoxixaRQs9KtplASw69-5" target="njoxixaRQs9KtplASw69-92" edge="1">
          <mxGeometry relative="1" as="geometry" />
        </mxCell>
        <mxCell id="njoxixaRQs9KtplASw69-97" style="edgeStyle=orthogonalEdgeStyle;rounded=0;orthogonalLoop=1;jettySize=auto;html=1;entryX=0;entryY=0.5;entryDx=0;entryDy=0;" parent="1" source="njoxixaRQs9KtplASw69-5" target="njoxixaRQs9KtplASw69-95" edge="1">
          <mxGeometry relative="1" as="geometry" />
        </mxCell>
        <mxCell id="njoxixaRQs9KtplASw69-133" style="edgeStyle=orthogonalEdgeStyle;rounded=0;orthogonalLoop=1;jettySize=auto;html=1;entryX=1;entryY=0.5;entryDx=0;entryDy=0;" parent="1" source="njoxixaRQs9KtplASw69-5" target="njoxixaRQs9KtplASw69-131" edge="1">
          <mxGeometry relative="1" as="geometry" />
        </mxCell>
        <mxCell id="njoxixaRQs9KtplASw69-142" style="edgeStyle=orthogonalEdgeStyle;rounded=0;orthogonalLoop=1;jettySize=auto;html=1;entryX=0.5;entryY=1;entryDx=0;entryDy=0;" parent="1" source="njoxixaRQs9KtplASw69-5" target="njoxixaRQs9KtplASw69-140" edge="1">
          <mxGeometry relative="1" as="geometry" />
        </mxCell>
        <mxCell id="njoxixaRQs9KtplASw69-5" value="Ticket" style="rounded=0;whiteSpace=wrap;html=1;" parent="1" vertex="1">
          <mxGeometry x="1110" y="800" width="120" height="60" as="geometry" />
        </mxCell>
        <mxCell id="njoxixaRQs9KtplASw69-73" style="edgeStyle=orthogonalEdgeStyle;rounded=0;orthogonalLoop=1;jettySize=auto;html=1;entryX=0;entryY=0.5;entryDx=0;entryDy=0;" parent="1" source="njoxixaRQs9KtplASw69-6" target="njoxixaRQs9KtplASw69-65" edge="1">
          <mxGeometry relative="1" as="geometry">
            <Array as="points">
              <mxPoint x="1200" y="555" />
            </Array>
          </mxGeometry>
        </mxCell>
        <mxCell id="njoxixaRQs9KtplASw69-74" style="edgeStyle=orthogonalEdgeStyle;rounded=0;orthogonalLoop=1;jettySize=auto;html=1;entryX=0;entryY=0.5;entryDx=0;entryDy=0;" parent="1" source="njoxixaRQs9KtplASw69-6" target="njoxixaRQs9KtplASw69-68" edge="1">
          <mxGeometry relative="1" as="geometry">
            <Array as="points">
              <mxPoint x="1200" y="595" />
            </Array>
          </mxGeometry>
        </mxCell>
        <mxCell id="njoxixaRQs9KtplASw69-141" style="edgeStyle=orthogonalEdgeStyle;rounded=0;orthogonalLoop=1;jettySize=auto;html=1;entryX=0.5;entryY=0;entryDx=0;entryDy=0;endArrow=doubleBlock;endFill=1;" parent="1" source="njoxixaRQs9KtplASw69-6" target="njoxixaRQs9KtplASw69-140" edge="1">
          <mxGeometry relative="1" as="geometry" />
        </mxCell>
        <mxCell id="njoxixaRQs9KtplASw69-83" style="edgeStyle=orthogonalEdgeStyle;rounded=0;orthogonalLoop=1;jettySize=auto;html=1;entryX=0;entryY=0.5;entryDx=0;entryDy=0;" parent="1" source="njoxixaRQs9KtplASw69-7" target="njoxixaRQs9KtplASw69-75" edge="1">
          <mxGeometry relative="1" as="geometry" />
        </mxCell>
        <mxCell id="njoxixaRQs9KtplASw69-84" style="edgeStyle=orthogonalEdgeStyle;rounded=0;orthogonalLoop=1;jettySize=auto;html=1;entryX=0;entryY=0.5;entryDx=0;entryDy=0;" parent="1" source="njoxixaRQs9KtplASw69-7" target="njoxixaRQs9KtplASw69-77" edge="1">
          <mxGeometry relative="1" as="geometry" />
        </mxCell>
        <mxCell id="njoxixaRQs9KtplASw69-85" style="edgeStyle=orthogonalEdgeStyle;rounded=0;orthogonalLoop=1;jettySize=auto;html=1;entryX=0;entryY=0.5;entryDx=0;entryDy=0;" parent="1" source="njoxixaRQs9KtplASw69-7" target="njoxixaRQs9KtplASw69-78" edge="1">
          <mxGeometry relative="1" as="geometry" />
        </mxCell>
        <mxCell id="njoxixaRQs9KtplASw69-149" style="edgeStyle=orthogonalEdgeStyle;rounded=0;orthogonalLoop=1;jettySize=auto;html=1;entryX=0;entryY=0.5;entryDx=0;entryDy=0;" parent="1" source="njoxixaRQs9KtplASw69-7" target="njoxixaRQs9KtplASw69-148" edge="1">
          <mxGeometry relative="1" as="geometry" />
        </mxCell>
        <mxCell id="njoxixaRQs9KtplASw69-169" style="edgeStyle=orthogonalEdgeStyle;rounded=0;orthogonalLoop=1;jettySize=auto;html=1;entryX=0.5;entryY=1;entryDx=0;entryDy=0;" parent="1" source="njoxixaRQs9KtplASw69-7" target="njoxixaRQs9KtplASw69-167" edge="1">
          <mxGeometry relative="1" as="geometry">
            <Array as="points">
              <mxPoint x="50" y="1100" />
              <mxPoint x="1500" y="1100" />
            </Array>
          </mxGeometry>
        </mxCell>
        <mxCell id="njoxixaRQs9KtplASw69-7" value="Review" style="rounded=0;whiteSpace=wrap;html=1;" parent="1" vertex="1">
          <mxGeometry x="20" y="800" width="120" height="60" as="geometry" />
        </mxCell>
        <mxCell id="njoxixaRQs9KtplASw69-112" style="edgeStyle=orthogonalEdgeStyle;rounded=0;orthogonalLoop=1;jettySize=auto;html=1;entryX=0;entryY=0.5;entryDx=0;entryDy=0;" parent="1" source="njoxixaRQs9KtplASw69-8" target="njoxixaRQs9KtplASw69-106" edge="1">
          <mxGeometry relative="1" as="geometry" />
        </mxCell>
        <mxCell id="njoxixaRQs9KtplASw69-114" style="edgeStyle=orthogonalEdgeStyle;rounded=0;orthogonalLoop=1;jettySize=auto;html=1;entryX=0;entryY=0.5;entryDx=0;entryDy=0;" parent="1" source="njoxixaRQs9KtplASw69-8" target="njoxixaRQs9KtplASw69-108" edge="1">
          <mxGeometry relative="1" as="geometry" />
        </mxCell>
        <mxCell id="njoxixaRQs9KtplASw69-152" style="edgeStyle=orthogonalEdgeStyle;rounded=0;orthogonalLoop=1;jettySize=auto;html=1;entryX=0;entryY=0.5;entryDx=0;entryDy=0;" parent="1" source="njoxixaRQs9KtplASw69-8" target="njoxixaRQs9KtplASw69-151" edge="1">
          <mxGeometry relative="1" as="geometry" />
        </mxCell>
        <mxCell id="njoxixaRQs9KtplASw69-160" style="edgeStyle=orthogonalEdgeStyle;rounded=0;orthogonalLoop=1;jettySize=auto;html=1;entryX=0.5;entryY=1;entryDx=0;entryDy=0;endArrow=block;endFill=0;" parent="1" source="njoxixaRQs9KtplASw69-8" target="njoxixaRQs9KtplASw69-155" edge="1">
          <mxGeometry relative="1" as="geometry">
            <Array as="points">
              <mxPoint x="80" y="360" />
              <mxPoint x="580" y="360" />
            </Array>
          </mxGeometry>
        </mxCell>
        <mxCell id="njoxixaRQs9KtplASw69-8" value="Employee" style="rounded=0;whiteSpace=wrap;html=1;" parent="1" vertex="1">
          <mxGeometry x="20" y="460" width="120" height="60" as="geometry" />
        </mxCell>
        <mxCell id="njoxixaRQs9KtplASw69-9" value="" style="ellipse;whiteSpace=wrap;html=1;aspect=fixed;" parent="1" vertex="1">
          <mxGeometry x="490" y="540" width="30" height="30" as="geometry" />
        </mxCell>
        <mxCell id="njoxixaRQs9KtplASw69-10" value="Name" style="text;html=1;align=center;verticalAlign=middle;resizable=0;points=[];autosize=1;strokeColor=none;fillColor=none;" parent="1" vertex="1">
          <mxGeometry x="515" y="540" width="60" height="30" as="geometry" />
        </mxCell>
        <mxCell id="njoxixaRQs9KtplASw69-12" value="" style="ellipse;whiteSpace=wrap;html=1;aspect=fixed;" parent="1" vertex="1">
          <mxGeometry x="490" y="580" width="30" height="30" as="geometry" />
        </mxCell>
        <mxCell id="njoxixaRQs9KtplASw69-13" value="Address" style="text;html=1;align=center;verticalAlign=middle;resizable=0;points=[];autosize=1;strokeColor=none;fillColor=none;" parent="1" vertex="1">
          <mxGeometry x="515" y="580" width="70" height="30" as="geometry" />
        </mxCell>
        <mxCell id="njoxixaRQs9KtplASw69-14" value="" style="ellipse;whiteSpace=wrap;html=1;aspect=fixed;" parent="1" vertex="1">
          <mxGeometry x="490" y="620" width="30" height="30" as="geometry" />
        </mxCell>
        <mxCell id="njoxixaRQs9KtplASw69-15" value="Phone" style="text;html=1;align=center;verticalAlign=middle;resizable=0;points=[];autosize=1;strokeColor=none;fillColor=none;" parent="1" vertex="1">
          <mxGeometry x="515" y="620" width="60" height="30" as="geometry" />
        </mxCell>
        <mxCell id="njoxixaRQs9KtplASw69-19" value="" style="endArrow=none;html=1;rounded=0;" parent="1" edge="1">
          <mxGeometry width="50" height="50" relative="1" as="geometry">
            <mxPoint x="450" y="650" as="sourcePoint" />
            <mxPoint x="450" y="620" as="targetPoint" />
          </mxGeometry>
        </mxCell>
        <mxCell id="njoxixaRQs9KtplASw69-20" value="" style="ellipse;whiteSpace=wrap;html=1;aspect=fixed;" parent="1" vertex="1">
          <mxGeometry x="845" y="540" width="30" height="30" as="geometry" />
        </mxCell>
        <mxCell id="njoxixaRQs9KtplASw69-21" value="Name" style="text;html=1;align=center;verticalAlign=middle;resizable=0;points=[];autosize=1;strokeColor=none;fillColor=none;" parent="1" vertex="1">
          <mxGeometry x="870" y="540" width="60" height="30" as="geometry" />
        </mxCell>
        <mxCell id="njoxixaRQs9KtplASw69-22" value="" style="ellipse;whiteSpace=wrap;html=1;aspect=fixed;" parent="1" vertex="1">
          <mxGeometry x="845" y="580" width="30" height="30" as="geometry" />
        </mxCell>
        <mxCell id="njoxixaRQs9KtplASw69-23" value="Capacity" style="text;html=1;align=center;verticalAlign=middle;resizable=0;points=[];autosize=1;strokeColor=none;fillColor=none;" parent="1" vertex="1">
          <mxGeometry x="870" y="580" width="70" height="30" as="geometry" />
        </mxCell>
        <mxCell id="njoxixaRQs9KtplASw69-24" value="" style="ellipse;whiteSpace=wrap;html=1;aspect=fixed;" parent="1" vertex="1">
          <mxGeometry x="845" y="620" width="30" height="30" as="geometry" />
        </mxCell>
        <mxCell id="njoxixaRQs9KtplASw69-25" value="Screentype" style="text;html=1;align=center;verticalAlign=middle;resizable=0;points=[];autosize=1;strokeColor=none;fillColor=none;" parent="1" vertex="1">
          <mxGeometry x="875" y="620" width="80" height="30" as="geometry" />
        </mxCell>
        <mxCell id="njoxixaRQs9KtplASw69-30" value="" style="endArrow=none;html=1;rounded=0;" parent="1" edge="1">
          <mxGeometry width="50" height="50" relative="1" as="geometry">
            <mxPoint x="830" y="650" as="sourcePoint" />
            <mxPoint x="830" y="620" as="targetPoint" />
          </mxGeometry>
        </mxCell>
        <mxCell id="njoxixaRQs9KtplASw69-31" value="" style="ellipse;whiteSpace=wrap;html=1;aspect=fixed;" parent="1" vertex="1">
          <mxGeometry x="489" y="880" width="30" height="30" as="geometry" />
        </mxCell>
        <mxCell id="njoxixaRQs9KtplASw69-32" value="Title" style="text;html=1;align=center;verticalAlign=middle;resizable=0;points=[];autosize=1;strokeColor=none;fillColor=none;" parent="1" vertex="1">
          <mxGeometry x="514" y="880" width="50" height="30" as="geometry" />
        </mxCell>
        <mxCell id="njoxixaRQs9KtplASw69-33" value="" style="ellipse;whiteSpace=wrap;html=1;aspect=fixed;" parent="1" vertex="1">
          <mxGeometry x="489" y="920" width="30" height="30" as="geometry" />
        </mxCell>
        <mxCell id="njoxixaRQs9KtplASw69-34" value="Director" style="text;html=1;align=center;verticalAlign=middle;resizable=0;points=[];autosize=1;strokeColor=none;fillColor=none;" parent="1" vertex="1">
          <mxGeometry x="514" y="920" width="70" height="30" as="geometry" />
        </mxCell>
        <mxCell id="njoxixaRQs9KtplASw69-35" value="" style="ellipse;whiteSpace=wrap;html=1;aspect=fixed;" parent="1" vertex="1">
          <mxGeometry x="489" y="960" width="30" height="30" as="geometry" />
        </mxCell>
        <mxCell id="njoxixaRQs9KtplASw69-36" value="Release Date" style="text;html=1;align=center;verticalAlign=middle;resizable=0;points=[];autosize=1;strokeColor=none;fillColor=none;" parent="1" vertex="1">
          <mxGeometry x="514" y="960" width="100" height="30" as="geometry" />
        </mxCell>
        <mxCell id="njoxixaRQs9KtplASw69-42" value="" style="ellipse;whiteSpace=wrap;html=1;aspect=fixed;" parent="1" vertex="1">
          <mxGeometry x="489" y="1000" width="30" height="30" as="geometry" />
        </mxCell>
        <mxCell id="njoxixaRQs9KtplASw69-43" value="Duration" style="text;html=1;align=center;verticalAlign=middle;resizable=0;points=[];autosize=1;strokeColor=none;fillColor=none;" parent="1" vertex="1">
          <mxGeometry x="514" y="1000" width="70" height="30" as="geometry" />
        </mxCell>
        <mxCell id="njoxixaRQs9KtplASw69-49" value="" style="endArrow=none;html=1;rounded=0;" parent="1" edge="1">
          <mxGeometry width="50" height="50" relative="1" as="geometry">
            <mxPoint x="449" y="950" as="sourcePoint" />
            <mxPoint x="449" y="920" as="targetPoint" />
          </mxGeometry>
        </mxCell>
        <mxCell id="njoxixaRQs9KtplASw69-50" value="" style="endArrow=none;html=1;rounded=0;" parent="1" edge="1">
          <mxGeometry width="50" height="50" relative="1" as="geometry">
            <mxPoint x="449" y="990" as="sourcePoint" />
            <mxPoint x="449" y="960" as="targetPoint" />
          </mxGeometry>
        </mxCell>
        <mxCell id="njoxixaRQs9KtplASw69-51" value="" style="endArrow=none;html=1;rounded=0;" parent="1" edge="1">
          <mxGeometry width="50" height="50" relative="1" as="geometry">
            <mxPoint x="449" y="1030" as="sourcePoint" />
            <mxPoint x="449" y="1000" as="targetPoint" />
          </mxGeometry>
        </mxCell>
        <mxCell id="njoxixaRQs9KtplASw69-52" value="" style="ellipse;whiteSpace=wrap;html=1;aspect=fixed;" parent="1" vertex="1">
          <mxGeometry x="489" y="1040" width="30" height="30" as="geometry" />
        </mxCell>
        <mxCell id="njoxixaRQs9KtplASw69-53" value="Ratings" style="text;html=1;align=center;verticalAlign=middle;resizable=0;points=[];autosize=1;strokeColor=none;fillColor=none;" parent="1" vertex="1">
          <mxGeometry x="519" y="1040" width="60" height="30" as="geometry" />
        </mxCell>
        <mxCell id="njoxixaRQs9KtplASw69-55" value="" style="endArrow=none;html=1;rounded=0;" parent="1" edge="1">
          <mxGeometry width="50" height="50" relative="1" as="geometry">
            <mxPoint x="449" y="1070" as="sourcePoint" />
            <mxPoint x="449" y="1040" as="targetPoint" />
          </mxGeometry>
        </mxCell>
        <mxCell id="njoxixaRQs9KtplASw69-56" value="" style="ellipse;whiteSpace=wrap;html=1;aspect=fixed;" parent="1" vertex="1">
          <mxGeometry x="844" y="880" width="30" height="30" as="geometry" />
        </mxCell>
        <mxCell id="njoxixaRQs9KtplASw69-57" value="Show Date Time" style="text;html=1;align=center;verticalAlign=middle;resizable=0;points=[];autosize=1;strokeColor=none;fillColor=none;" parent="1" vertex="1">
          <mxGeometry x="867" y="880" width="110" height="30" as="geometry" />
        </mxCell>
        <mxCell id="njoxixaRQs9KtplASw69-58" value="" style="ellipse;whiteSpace=wrap;html=1;aspect=fixed;" parent="1" vertex="1">
          <mxGeometry x="844" y="920" width="30" height="30" as="geometry" />
        </mxCell>
        <mxCell id="njoxixaRQs9KtplASw69-59" value="Price" style="text;html=1;align=center;verticalAlign=middle;resizable=0;points=[];autosize=1;strokeColor=none;fillColor=none;" parent="1" vertex="1">
          <mxGeometry x="874" y="920" width="50" height="30" as="geometry" />
        </mxCell>
        <mxCell id="njoxixaRQs9KtplASw69-65" value="" style="ellipse;whiteSpace=wrap;html=1;aspect=fixed;" parent="1" vertex="1">
          <mxGeometry x="1230" y="540" width="30" height="30" as="geometry" />
        </mxCell>
        <mxCell id="njoxixaRQs9KtplASw69-66" value="Email" style="text;html=1;align=center;verticalAlign=middle;resizable=0;points=[];autosize=1;strokeColor=none;fillColor=none;" parent="1" vertex="1">
          <mxGeometry x="1255" y="540" width="50" height="30" as="geometry" />
        </mxCell>
        <mxCell id="njoxixaRQs9KtplASw69-68" value="" style="ellipse;whiteSpace=wrap;html=1;aspect=fixed;" parent="1" vertex="1">
          <mxGeometry x="1230" y="580" width="30" height="30" as="geometry" />
        </mxCell>
        <mxCell id="njoxixaRQs9KtplASw69-69" value="Phone number" style="text;html=1;align=center;verticalAlign=middle;resizable=0;points=[];autosize=1;strokeColor=none;fillColor=none;" parent="1" vertex="1">
          <mxGeometry x="1255" y="580" width="100" height="30" as="geometry" />
        </mxCell>
        <mxCell id="njoxixaRQs9KtplASw69-75" value="" style="ellipse;whiteSpace=wrap;html=1;aspect=fixed;" parent="1" vertex="1">
          <mxGeometry x="140" y="890" width="30" height="30" as="geometry" />
        </mxCell>
        <mxCell id="njoxixaRQs9KtplASw69-76" value="Text" style="text;html=1;align=center;verticalAlign=middle;resizable=0;points=[];autosize=1;strokeColor=none;fillColor=none;" parent="1" vertex="1">
          <mxGeometry x="165" y="890" width="50" height="30" as="geometry" />
        </mxCell>
        <mxCell id="njoxixaRQs9KtplASw69-77" value="" style="ellipse;whiteSpace=wrap;html=1;aspect=fixed;" parent="1" vertex="1">
          <mxGeometry x="140" y="930" width="30" height="30" as="geometry" />
        </mxCell>
        <mxCell id="njoxixaRQs9KtplASw69-78" value="" style="ellipse;whiteSpace=wrap;html=1;aspect=fixed;" parent="1" vertex="1">
          <mxGeometry x="140" y="970" width="30" height="30" as="geometry" />
        </mxCell>
        <mxCell id="njoxixaRQs9KtplASw69-79" value="Review Date" style="text;html=1;align=center;verticalAlign=middle;resizable=0;points=[];autosize=1;strokeColor=none;fillColor=none;" parent="1" vertex="1">
          <mxGeometry x="165" y="970" width="90" height="30" as="geometry" />
        </mxCell>
        <mxCell id="njoxixaRQs9KtplASw69-80" value="Rating" style="text;html=1;align=center;verticalAlign=middle;resizable=0;points=[];autosize=1;strokeColor=none;fillColor=none;" parent="1" vertex="1">
          <mxGeometry x="165" y="930" width="60" height="30" as="geometry" />
        </mxCell>
        <mxCell id="njoxixaRQs9KtplASw69-87" value="" style="endArrow=none;html=1;rounded=0;" parent="1" edge="1">
          <mxGeometry width="50" height="50" relative="1" as="geometry">
            <mxPoint x="1211" y="570" as="sourcePoint" />
            <mxPoint x="1211" y="540" as="targetPoint" />
          </mxGeometry>
        </mxCell>
        <mxCell id="njoxixaRQs9KtplASw69-88" value="" style="endArrow=none;html=1;rounded=0;" parent="1" edge="1">
          <mxGeometry width="50" height="50" relative="1" as="geometry">
            <mxPoint x="1211" y="610" as="sourcePoint" />
            <mxPoint x="1211" y="580" as="targetPoint" />
          </mxGeometry>
        </mxCell>
        <mxCell id="njoxixaRQs9KtplASw69-89" value="" style="endArrow=none;html=1;rounded=0;" parent="1" edge="1">
          <mxGeometry width="50" height="50" relative="1" as="geometry">
            <mxPoint x="105" y="1000" as="sourcePoint" />
            <mxPoint x="105" y="970" as="targetPoint" />
          </mxGeometry>
        </mxCell>
        <mxCell id="njoxixaRQs9KtplASw69-92" value="" style="ellipse;whiteSpace=wrap;html=1;aspect=fixed;" parent="1" vertex="1">
          <mxGeometry x="1230" y="890" width="30" height="30" as="geometry" />
        </mxCell>
        <mxCell id="njoxixaRQs9KtplASw69-93" value="Seat number" style="text;html=1;align=center;verticalAlign=middle;resizable=0;points=[];autosize=1;strokeColor=none;fillColor=none;" parent="1" vertex="1">
          <mxGeometry x="1255" y="890" width="90" height="30" as="geometry" />
        </mxCell>
        <mxCell id="njoxixaRQs9KtplASw69-95" value="" style="ellipse;whiteSpace=wrap;html=1;aspect=fixed;" parent="1" vertex="1">
          <mxGeometry x="1230" y="930" width="30" height="30" as="geometry" />
        </mxCell>
        <mxCell id="njoxixaRQs9KtplASw69-96" value="Purchase date" style="text;html=1;align=center;verticalAlign=middle;resizable=0;points=[];autosize=1;strokeColor=none;fillColor=none;" parent="1" vertex="1">
          <mxGeometry x="1255" y="930" width="100" height="30" as="geometry" />
        </mxCell>
        <mxCell id="njoxixaRQs9KtplASw69-106" value="" style="ellipse;whiteSpace=wrap;html=1;aspect=fixed;" parent="1" vertex="1">
          <mxGeometry x="140" y="550" width="30" height="30" as="geometry" />
        </mxCell>
        <mxCell id="njoxixaRQs9KtplASw69-107" value="Position" style="text;html=1;align=center;verticalAlign=middle;resizable=0;points=[];autosize=1;strokeColor=none;fillColor=none;" parent="1" vertex="1">
          <mxGeometry x="170" y="550" width="70" height="30" as="geometry" />
        </mxCell>
        <mxCell id="njoxixaRQs9KtplASw69-108" value="" style="ellipse;whiteSpace=wrap;html=1;aspect=fixed;" parent="1" vertex="1">
          <mxGeometry x="140" y="590" width="30" height="30" as="geometry" />
        </mxCell>
        <mxCell id="njoxixaRQs9KtplASw69-109" value="Hire date" style="text;html=1;align=center;verticalAlign=middle;resizable=0;points=[];autosize=1;strokeColor=none;fillColor=none;" parent="1" vertex="1">
          <mxGeometry x="170" y="590" width="70" height="30" as="geometry" />
        </mxCell>
        <mxCell id="njoxixaRQs9KtplASw69-115" value="" style="endArrow=none;html=1;rounded=0;" parent="1" edge="1">
          <mxGeometry width="50" height="50" relative="1" as="geometry">
            <mxPoint x="103" y="580" as="sourcePoint" />
            <mxPoint x="103" y="550" as="targetPoint" />
          </mxGeometry>
        </mxCell>
        <mxCell id="njoxixaRQs9KtplASw69-116" value="" style="endArrow=none;html=1;rounded=0;" parent="1" edge="1">
          <mxGeometry width="50" height="50" relative="1" as="geometry">
            <mxPoint x="103" y="620" as="sourcePoint" />
            <mxPoint x="103" y="590" as="targetPoint" />
          </mxGeometry>
        </mxCell>
        <mxCell id="njoxixaRQs9KtplASw69-117" value="Has" style="rhombus;whiteSpace=wrap;html=1;" parent="1" vertex="1">
          <mxGeometry x="570" y="450" width="80" height="80" as="geometry" />
        </mxCell>
        <mxCell id="njoxixaRQs9KtplASw69-121" value="" style="endArrow=none;html=1;rounded=0;" parent="1" edge="1">
          <mxGeometry width="50" height="50" relative="1" as="geometry">
            <mxPoint x="504.64" y="505" as="sourcePoint" />
            <mxPoint x="504.64" y="475" as="targetPoint" />
          </mxGeometry>
        </mxCell>
        <mxCell id="njoxixaRQs9KtplASw69-122" value="Has" style="rhombus;whiteSpace=wrap;html=1;" parent="1" vertex="1">
          <mxGeometry x="569" y="790" width="80" height="80" as="geometry" />
        </mxCell>
        <mxCell id="njoxixaRQs9KtplASw69-126" value="Happens" style="rhombus;whiteSpace=wrap;html=1;" parent="1" vertex="1">
          <mxGeometry x="744" y="640" width="80" height="80" as="geometry" />
        </mxCell>
        <mxCell id="njoxixaRQs9KtplASw69-129" value="" style="endArrow=none;html=1;rounded=0;" parent="1" edge="1">
          <mxGeometry width="50" height="50" relative="1" as="geometry">
            <mxPoint x="770" y="540" as="sourcePoint" />
            <mxPoint x="800" y="540" as="targetPoint" />
          </mxGeometry>
        </mxCell>
        <mxCell id="njoxixaRQs9KtplASw69-131" value="Makes" style="rhombus;whiteSpace=wrap;html=1;" parent="1" vertex="1">
          <mxGeometry x="940" y="790" width="80" height="80" as="geometry" />
        </mxCell>
        <mxCell id="njoxixaRQs9KtplASw69-134" value="" style="endArrow=none;html=1;rounded=0;" parent="1" edge="1">
          <mxGeometry width="50" height="50" relative="1" as="geometry">
            <mxPoint x="859.76" y="845" as="sourcePoint" />
            <mxPoint x="859.76" y="815" as="targetPoint" />
          </mxGeometry>
        </mxCell>
        <mxCell id="njoxixaRQs9KtplASw69-140" value="Buys" style="rhombus;whiteSpace=wrap;html=1;" parent="1" vertex="1">
          <mxGeometry x="1130" y="670" width="80" height="80" as="geometry" />
        </mxCell>
        <mxCell id="njoxixaRQs9KtplASw69-143" value="" style="endArrow=none;html=1;rounded=0;" parent="1" source="njoxixaRQs9KtplASw69-6" edge="1">
          <mxGeometry width="50" height="50" relative="1" as="geometry">
            <mxPoint x="1155" y="500" as="sourcePoint" />
            <mxPoint x="1185" y="500" as="targetPoint" />
          </mxGeometry>
        </mxCell>
        <mxCell id="njoxixaRQs9KtplASw69-144" value="" style="endArrow=none;html=1;rounded=0;" parent="1" target="njoxixaRQs9KtplASw69-6" edge="1">
          <mxGeometry width="50" height="50" relative="1" as="geometry">
            <mxPoint x="1155" y="500" as="sourcePoint" />
            <mxPoint x="1185" y="500" as="targetPoint" />
          </mxGeometry>
        </mxCell>
        <mxCell id="njoxixaRQs9KtplASw69-161" style="edgeStyle=orthogonalEdgeStyle;rounded=0;orthogonalLoop=1;jettySize=auto;html=1;entryX=0.5;entryY=1;entryDx=0;entryDy=0;endArrow=block;endFill=0;" parent="1" source="njoxixaRQs9KtplASw69-6" target="njoxixaRQs9KtplASw69-155" edge="1">
          <mxGeometry relative="1" as="geometry">
            <Array as="points">
              <mxPoint x="1170" y="360" />
              <mxPoint x="580" y="360" />
            </Array>
          </mxGeometry>
        </mxCell>
        <mxCell id="njoxixaRQs9KtplASw69-168" style="edgeStyle=orthogonalEdgeStyle;rounded=0;orthogonalLoop=1;jettySize=auto;html=1;entryX=0.5;entryY=0;entryDx=0;entryDy=0;endArrow=doubleBlock;endFill=1;" parent="1" source="njoxixaRQs9KtplASw69-6" target="njoxixaRQs9KtplASw69-167" edge="1">
          <mxGeometry relative="1" as="geometry" />
        </mxCell>
        <mxCell id="njoxixaRQs9KtplASw69-6" value="Customer" style="rounded=0;whiteSpace=wrap;html=1;" parent="1" vertex="1">
          <mxGeometry x="1110" y="450" width="120" height="60" as="geometry" />
        </mxCell>
        <mxCell id="njoxixaRQs9KtplASw69-148" value="Has" style="rhombus;whiteSpace=wrap;html=1;" parent="1" vertex="1">
          <mxGeometry x="215" y="790" width="80" height="80" as="geometry" />
        </mxCell>
        <mxCell id="njoxixaRQs9KtplASw69-151" value="Works" style="rhombus;whiteSpace=wrap;html=1;" parent="1" vertex="1">
          <mxGeometry x="215" y="450" width="80" height="80" as="geometry" />
        </mxCell>
        <mxCell id="njoxixaRQs9KtplASw69-154" value="" style="endArrow=none;html=1;rounded=0;" parent="1" edge="1">
          <mxGeometry width="50" height="50" relative="1" as="geometry">
            <mxPoint x="350" y="505" as="sourcePoint" />
            <mxPoint x="350" y="475" as="targetPoint" />
          </mxGeometry>
        </mxCell>
        <mxCell id="njoxixaRQs9KtplASw69-164" style="edgeStyle=orthogonalEdgeStyle;rounded=0;orthogonalLoop=1;jettySize=auto;html=1;entryX=0;entryY=0.5;entryDx=0;entryDy=0;" parent="1" source="njoxixaRQs9KtplASw69-155" target="njoxixaRQs9KtplASw69-158" edge="1">
          <mxGeometry relative="1" as="geometry">
            <Array as="points">
              <mxPoint x="610" y="325" />
            </Array>
          </mxGeometry>
        </mxCell>
        <mxCell id="njoxixaRQs9KtplASw69-155" value="Person" style="rounded=0;whiteSpace=wrap;html=1;" parent="1" vertex="1">
          <mxGeometry x="520" y="180" width="120" height="60" as="geometry" />
        </mxCell>
        <mxCell id="njoxixaRQs9KtplASw69-156" value="" style="ellipse;whiteSpace=wrap;html=1;aspect=fixed;" parent="1" vertex="1">
          <mxGeometry x="640" y="270" width="30" height="30" as="geometry" />
        </mxCell>
        <mxCell id="njoxixaRQs9KtplASw69-157" value="First Name" style="text;html=1;align=center;verticalAlign=middle;resizable=0;points=[];autosize=1;strokeColor=none;fillColor=none;" parent="1" vertex="1">
          <mxGeometry x="670" y="270" width="80" height="30" as="geometry" />
        </mxCell>
        <mxCell id="njoxixaRQs9KtplASw69-158" value="" style="ellipse;whiteSpace=wrap;html=1;aspect=fixed;" parent="1" vertex="1">
          <mxGeometry x="640" y="310" width="30" height="30" as="geometry" />
        </mxCell>
        <mxCell id="njoxixaRQs9KtplASw69-159" value="Last name" style="text;html=1;align=center;verticalAlign=middle;resizable=0;points=[];autosize=1;strokeColor=none;fillColor=none;" parent="1" vertex="1">
          <mxGeometry x="670" y="310" width="80" height="30" as="geometry" />
        </mxCell>
        <mxCell id="njoxixaRQs9KtplASw69-162" style="edgeStyle=orthogonalEdgeStyle;rounded=0;orthogonalLoop=1;jettySize=auto;html=1;entryX=0.028;entryY=0.686;entryDx=0;entryDy=0;entryPerimeter=0;" parent="1" source="njoxixaRQs9KtplASw69-155" target="njoxixaRQs9KtplASw69-156" edge="1">
          <mxGeometry relative="1" as="geometry">
            <Array as="points">
              <mxPoint x="610" y="291" />
            </Array>
          </mxGeometry>
        </mxCell>
        <mxCell id="njoxixaRQs9KtplASw69-167" value="Makes" style="rhombus;whiteSpace=wrap;html=1;" parent="1" vertex="1">
          <mxGeometry x="1460" y="640" width="80" height="80" as="geometry" />
        </mxCell>
        <mxCell id="njoxixaRQs9KtplASw69-170" value="" style="endArrow=none;html=1;rounded=0;" parent="1" edge="1">
          <mxGeometry width="50" height="50" relative="1" as="geometry">
            <mxPoint x="1244.77" y="495" as="sourcePoint" />
            <mxPoint x="1244.77" y="465" as="targetPoint" />
          </mxGeometry>
        </mxCell>
        <mxCell id="njoxixaRQs9KtplASw69-172" value="" style="endArrow=none;html=1;rounded=0;" parent="1" edge="1">
          <mxGeometry width="50" height="50" relative="1" as="geometry">
            <mxPoint x="1155" y="529.52" as="sourcePoint" />
            <mxPoint x="1185" y="529.52" as="targetPoint" />
          </mxGeometry>
        </mxCell>
        <mxCell id="FJ0Ez8-QhWHiq5MJ5ses-1" value="" style="endArrow=none;html=1;rounded=0;" parent="1" edge="1">
          <mxGeometry width="50" height="50" relative="1" as="geometry">
            <mxPoint x="500" y="845" as="sourcePoint" />
            <mxPoint x="500" y="815" as="targetPoint" />
          </mxGeometry>
        </mxCell>
        <mxCell id="FJ0Ez8-QhWHiq5MJ5ses-2" value="" style="endArrow=none;html=1;rounded=0;" parent="1" edge="1">
          <mxGeometry width="50" height="50" relative="1" as="geometry">
            <mxPoint x="360" y="845" as="sourcePoint" />
            <mxPoint x="360" y="815" as="targetPoint" />
          </mxGeometry>
        </mxCell>
      </root>
    </mxGraphModel>
  </diagram>
</mxfile>
